<?xml version="1.0" standalone="no"?>
<!DOCTYPE svg PUBLIC "-//W3C//DTD SVG 20010904//EN"
 "http://www.w3.org/TR/2001/REC-SVG-20010904/DTD/svg10.dtd">
<svg version="1.0" xmlns="http://www.w3.org/2000/svg"
 width="560.000000pt" height="560.000000pt" viewBox="0 0 560.000000 560.000000"
 preserveAspectRatio="xMidYMid meet">
<metadata>
Created by potrace 1.14, written by Peter Selinger 2001-2017
</metadata>
<g transform="translate(0.000000,560.000000) scale(0.100000,-0.100000)"
fill="#000000" stroke="none">
<path d="M11 3023 c1 -1418 5 -2559 10 -2536 4 24 19 58 32 75 14 18 34 66 46
107 11 41 24 77 29 80 4 3 18 21 31 38 12 18 51 54 87 79 35 25 64 51 64 58 0
26 261 298 325 338 22 14 56 40 75 57 52 47 133 99 166 107 16 4 37 18 47 31
10 13 42 34 70 48 29 13 63 35 78 48 14 13 41 29 60 36 18 6 50 21 69 33 93
57 330 170 373 179 27 5 63 15 80 23 60 27 148 56 169 56 11 0 46 11 77 24 91
38 210 67 300 71 65 4 93 10 125 29 38 22 57 25 196 31 85 3 176 11 202 17 36
9 64 9 113 -1 51 -9 80 -9 125 0 49 9 73 9 138 -4 50 -10 107 -15 152 -12 61
4 79 2 107 -15 24 -14 52 -20 93 -20 33 0 69 -4 82 -9 35 -14 203 -51 233 -51
15 0 75 -23 134 -51 227 -109 248 -119 258 -119 13 0 72 -29 105 -52 22 -15
38 -18 70 -13 41 6 45 4 76 -34 19 -23 58 -52 95 -70 146 -72 217 -127 217
-168 1 -26 39 -65 85 -88 22 -11 49 -29 60 -40 12 -11 49 -46 82 -77 34 -31
69 -71 79 -89 18 -37 52 -68 72 -69 18 0 102 -87 102 -104 0 -7 32 -47 71 -87
39 -41 95 -110 124 -154 29 -45 61 -87 70 -95 10 -8 33 -47 52 -86 34 -73 58
-103 71 -90 4 4 7 1163 7 2574 l0 2567 -2120 2 c-1166 1 -2138 -2 -2160 -6
l-40 -7 45 -8 c66 -11 124 -40 140 -71 8 -15 26 -33 41 -41 31 -16 99 -84 99
-99 0 -5 36 -47 80 -93 44 -45 80 -89 80 -96 0 -7 7 -20 17 -27 9 -8 26 -37
39 -64 12 -28 47 -86 78 -129 31 -43 56 -84 56 -92 0 -24 67 -157 99 -198 17
-21 31 -45 31 -52 0 -15 34 -75 68 -121 17 -23 27 -53 32 -102 6 -60 14 -78
59 -145 48 -73 101 -183 101 -213 0 -18 28 -108 46 -150 8 -17 14 -34 14 -38
0 -3 14 -23 30 -44 18 -22 33 -54 36 -77 8 -63 26 -128 39 -144 26 -31 53 -97
60 -145 4 -27 17 -77 30 -110 13 -33 26 -80 30 -105 3 -24 15 -58 25 -75 15
-25 19 -48 18 -107 -1 -67 2 -81 24 -115 25 -39 70 -159 83 -223 6 -31 29 -89
56 -142 12 -24 11 -62 -2 -92 -10 -21 -8 -34 12 -76 13 -27 27 -50 31 -50 15
0 8 -39 -12 -73 -14 -24 -30 -37 -52 -41 -49 -10 -78 -7 -94 9 -9 8 -28 15
-44 15 -34 0 -50 23 -50 73 0 18 -11 56 -25 83 -18 36 -25 65 -25 110 0 56
-34 177 -59 209 -5 6 -16 37 -26 70 -19 64 -37 91 -53 81 -12 -7 0 -71 22
-111 9 -16 16 -38 16 -48 0 -10 5 -28 12 -40 12 -22 22 -82 36 -208 4 -37 13
-73 20 -82 21 -25 33 -80 26 -120 -5 -32 -12 -41 -40 -53 -19 -8 -56 -17 -81
-21 -26 -3 -63 -15 -81 -26 -29 -17 -37 -18 -57 -7 -28 15 -59 58 -107 147
-18 35 -37 63 -43 63 -18 1 -17 -52 2 -79 28 -40 55 -106 51 -127 -8 -43 -128
-24 -186 30 -40 37 -57 68 -65 118 -3 23 -23 61 -50 95 -39 51 -117 199 -117
222 0 4 -9 16 -19 25 -22 20 -37 50 -75 153 -15 40 -40 88 -55 107 -18 23 -31
53 -35 84 -4 33 -15 59 -34 80 -33 37 -64 103 -87 187 -25 92 -54 166 -78 205
-29 45 -89 305 -101 437 -3 28 -9 60 -15 70 -38 72 -51 109 -51 149 0 31 -8
56 -26 83 -15 24 -29 63 -34 102 -5 35 -23 103 -40 151 -26 75 -30 102 -30
188 0 81 -4 107 -20 137 -23 43 -25 66 -8 127 10 38 9 51 -10 102 -39 108 -37
349 3 472 17 52 52 91 84 93 9 1 -2 5 -24 9 -22 5 -284 9 -582 9 l-543 1 1
-2577z m5222 2428 c19 -8 27 -17 27 -35 0 -14 14 -65 31 -113 54 -156 57 -210
17 -307 -11 -28 -24 -92 -29 -150 -21 -227 -48 -385 -75 -437 -23 -44 -50
-181 -39 -199 3 -5 -38 -129 -78 -240 -3 -8 -8 -40 -12 -69 -3 -30 -12 -66
-20 -80 -40 -74 -75 -183 -75 -233 0 -22 -23 -96 -55 -179 -32 -82 -55 -157
-55 -178 0 -29 -8 -46 -30 -69 -16 -18 -30 -40 -30 -50 0 -10 -5 -23 -11 -29
-5 -5 -21 -62 -34 -125 -13 -63 -28 -125 -33 -139 -38 -95 -49 -118 -77 -154
-34 -44 -55 -87 -55 -112 0 -34 -92 -201 -120 -218 -10 -6 -27 -41 -53 -105
-8 -20 -33 -57 -56 -83 -22 -27 -41 -56 -41 -66 0 -10 -7 -24 -15 -31 -8 -7
-15 -17 -15 -23 0 -5 -12 -25 -26 -44 -22 -29 -31 -34 -62 -31 -33 3 -37 7
-40 32 -4 31 9 66 64 182 19 39 34 76 34 82 0 6 20 51 45 100 54 107 65 149
41 158 -24 9 -49 -18 -71 -78 -10 -29 -29 -73 -42 -97 -13 -24 -23 -58 -23
-75 0 -18 -14 -53 -32 -83 -18 -29 -45 -75 -60 -102 -22 -40 -33 -51 -53 -51
-14 0 -29 8 -35 20 -6 11 -21 20 -35 20 -13 0 -27 5 -30 10 -3 6 -33 10 -66
10 -33 0 -69 5 -80 11 -27 14 -41 53 -30 82 5 12 17 45 26 72 72 225 101 365
75 365 -22 0 -73 -161 -116 -360 -23 -109 -26 -118 -40 -124 -25 -10 -248 14
-263 28 -29 30 -8 335 27 379 10 12 35 109 48 182 4 22 23 71 43 109 30 58 36
79 34 123 -1 40 9 87 38 176 21 67 42 140 45 162 4 22 26 81 49 130 31 63 46
109 50 155 5 42 17 81 34 110 64 110 91 177 151 367 19 63 45 121 66 150 40
56 51 79 69 151 8 30 45 111 82 180 37 70 89 171 116 224 26 54 52 100 58 103
5 4 9 12 9 20 0 17 54 107 148 246 23 35 42 68 42 74 0 18 135 142 162 149 35
8 58 32 65 66 6 33 34 40 134 33 46 -3 79 0 110 11 47 17 123 16 172 -3z"/>
<path d="M4830 5011 c-28 -29 -50 -58 -50 -66 0 -7 -20 -44 -45 -82 -45 -67
-74 -137 -62 -149 20 -21 97 79 111 143 4 17 21 50 37 73 28 39 32 41 76 38
70 -5 86 -32 84 -141 -1 -47 2 -88 7 -91 33 -20 61 95 29 119 -12 8 -14 25
-10 76 5 63 4 67 -23 92 -16 15 -39 27 -51 27 -12 0 -29 3 -38 6 -11 4 -31
-10 -65 -45z"/>
<path d="M4616 4658 c-8 -13 -17 -33 -21 -46 -4 -13 -22 -50 -41 -83 -34 -61
-64 -137 -64 -164 0 -8 -4 -15 -10 -15 -5 0 -12 -16 -16 -35 -3 -19 -10 -35
-14 -35 -4 0 -13 -12 -19 -27 -7 -16 -18 -39 -26 -53 -8 -14 -15 -32 -15 -41
0 -8 -11 -38 -24 -65 -38 -78 -39 -141 -2 -97 27 32 56 94 81 173 31 98 42
122 96 202 19 29 48 82 63 118 15 36 31 73 37 83 5 9 12 38 16 62 5 37 3 45
-10 45 -9 0 -23 -10 -31 -22z"/>
<path d="M4949 4643 c-1 -68 3 -158 7 -162 22 -22 43 118 27 179 -9 35 -33 24
-34 -17z"/>
<path d="M4931 4424 c-21 -15 -23 -23 -19 -73 3 -32 0 -78 -8 -106 -18 -69
-17 -78 6 -55 19 19 27 55 47 203 3 26 4 47 2 47 -3 0 -15 -7 -28 -16z"/>
<path d="M4844 4058 c-4 -18 -8 -58 -9 -88 -3 -60 -10 -86 -33 -112 -15 -18
-17 -27 -47 -178 -9 -47 -21 -89 -26 -94 -5 -6 -9 -19 -9 -30 0 -11 -9 -38
-19 -60 -13 -26 -18 -52 -14 -69 5 -28 7 -26 33 30 75 158 83 180 92 263 6 51
19 106 34 138 19 42 24 69 24 137 0 87 -13 119 -26 63z"/>
<path d="M4276 3877 c-21 -31 -40 -127 -29 -138 21 -21 71 77 73 144 0 24 -27
21 -44 -6z"/>
<path d="M4205 3651 c-3 -16 -13 -35 -21 -42 -8 -6 -14 -16 -14 -21 0 -5 -12
-34 -26 -65 -35 -78 -54 -130 -68 -188 -7 -27 -15 -57 -19 -65 -3 -8 -9 -37
-12 -65 -4 -27 -10 -54 -14 -60 -10 -12 -66 -200 -101 -335 -14 -53 -20 -133
-11 -154 7 -17 9 -17 29 9 12 15 24 41 26 59 18 123 30 180 52 241 15 45 28
114 36 193 8 88 15 122 25 122 7 0 13 6 13 13 0 8 20 54 44 103 24 49 47 100
51 114 4 14 16 44 27 68 13 29 17 54 13 73 -8 37 -22 37 -30 0z"/>
<path d="M4667 3380 c-5 -19 -15 -44 -22 -55 -6 -11 -15 -41 -19 -67 -4 -27
-11 -48 -15 -48 -5 0 -14 -15 -21 -32 -7 -18 -19 -47 -26 -65 -8 -17 -14 -38
-14 -46 0 -9 -4 -18 -9 -21 -5 -3 -12 -27 -16 -53 -4 -27 -13 -55 -21 -63 -24
-28 -74 -149 -74 -180 0 -17 -9 -48 -19 -68 -11 -21 -22 -56 -26 -77 l-7 -40
26 29 c14 16 26 40 26 53 0 12 3 23 8 23 11 0 49 89 56 133 4 21 18 59 32 85
37 69 64 151 64 194 0 21 4 38 10 38 5 0 15 18 21 40 7 22 16 40 21 40 4 0 8
13 8 28 0 16 7 43 16 60 9 19 14 50 12 79 l-3 48 -8 -35z"/>
<path d="M1356 5132 c-36 -71 -53 -188 -37 -260 6 -31 16 -86 22 -121 5 -36
12 -67 14 -70 16 -15 19 30 16 198 -2 167 -1 190 15 205 12 12 25 15 43 11 45
-11 271 -266 271 -305 0 -6 5 -10 10 -10 6 0 10 -6 10 -13 0 -8 9 -22 20 -32
11 -10 20 -26 20 -36 0 -10 4 -20 9 -24 5 -3 12 -18 16 -34 3 -16 12 -35 20
-41 8 -6 17 -26 20 -43 3 -18 10 -41 15 -52 5 -11 22 -64 39 -118 17 -54 49
-129 71 -167 22 -37 46 -89 55 -116 35 -112 48 -150 56 -160 5 -6 13 -33 18
-60 12 -61 38 -124 51 -124 6 0 10 27 10 60 0 46 -7 74 -27 113 -14 29 -34 85
-44 124 -18 71 -38 117 -112 256 -21 38 -37 78 -37 90 0 11 -16 49 -35 84 -19
35 -35 70 -35 77 0 8 -7 19 -15 26 -8 7 -15 23 -15 36 0 12 -4 26 -10 29 -5 3
-14 24 -20 45 -6 22 -15 40 -20 40 -6 0 -10 7 -10 15 0 9 -18 39 -40 68 -21
29 -53 79 -71 112 -42 78 -218 245 -259 245 -5 0 -21 -21 -34 -48z"/>
<path d="M1381 4584 c0 -11 3 -14 6 -6 3 7 2 16 -1 19 -3 4 -6 -2 -5 -13z"/>
<path d="M1380 4527 c0 -13 3 -27 7 -30 3 -4 7 -19 9 -34 1 -16 5 -53 8 -83 3
-31 8 -64 12 -75 7 -18 8 -18 15 1 5 12 8 -6 8 -47 1 -49 5 -70 17 -80 15 -13
16 -8 10 54 -11 100 -44 251 -56 255 -5 2 -10 14 -10 27 0 13 -4 27 -10 30 -6
3 -10 -4 -10 -18z"/>
<path d="M1470 4131 c0 -16 7 -36 15 -45 8 -8 15 -32 15 -55 0 -22 6 -46 13
-53 25 -29 57 -98 57 -126 0 -16 7 -35 15 -42 8 -7 15 -19 15 -28 0 -8 3 -13
6 -9 10 9 -16 150 -31 174 -8 12 -15 29 -15 38 0 8 -4 15 -9 15 -5 0 -12 15
-16 33 -20 102 -65 169 -65 98z"/>
<path d="M1611 3734 c0 -18 6 -45 14 -60 8 -16 15 -37 15 -46 0 -27 11 -48 26
-48 19 0 18 26 -1 34 -12 4 -14 15 -9 45 5 33 3 41 -14 50 -11 6 -23 21 -25
33 -3 17 -5 15 -6 -8z"/>
<path d="M2150 3690 c0 -17 4 -38 9 -48 31 -58 49 -102 56 -137 6 -33 9 -37
15 -20 16 38 10 103 -13 154 -40 84 -67 105 -67 51z"/>
<path d="M1701 3482 c-25 -46 1 -168 60 -280 22 -40 39 -80 39 -88 0 -8 5 -12
10 -9 6 4 10 -7 10 -25 0 -27 65 -166 91 -194 5 -6 9 -18 9 -28 0 -9 11 -34
25 -54 28 -42 32 -28 12 46 -12 45 -98 222 -122 250 -7 8 -22 68 -34 132 -12
64 -33 139 -47 167 -13 28 -24 57 -24 63 0 7 -4 19 -9 27 -7 11 -11 10 -20 -7z"/>
<path d="M2240 3450 c0 -14 5 -32 10 -40 8 -12 10 -10 10 10 0 14 -5 32 -10
40 -8 12 -10 10 -10 -10z"/>
<path d="M2280 3293 c0 -57 5 -77 30 -122 17 -30 30 -65 30 -77 0 -13 6 -27
14 -31 8 -4 16 -23 18 -42 4 -43 28 -55 28 -14 0 16 -6 37 -14 48 -7 11 -15
47 -18 80 -3 39 -16 83 -36 126 -18 36 -32 71 -32 77 0 6 -4 14 -10 17 -6 4
-10 -19 -10 -62z"/>
<path d="M1985 2697 c-5 -11 8 -49 36 -105 46 -94 65 -120 79 -106 10 10 -20
108 -39 127 -6 6 -11 16 -11 22 0 5 -14 26 -30 45 -25 30 -30 33 -35 17z"/>
<path d="M3409 1426 c-57 -20 -99 -69 -99 -115 0 -38 40 -99 72 -110 75 -26
154 4 172 67 14 48 -9 141 -37 151 -48 17 -74 19 -108 7z"/>
<path d="M1979 1387 c-45 -38 -62 -75 -56 -120 11 -84 82 -129 167 -107 51 13
74 30 95 73 19 37 19 57 1 92 -17 32 -48 55 -96 72 -51 18 -82 16 -111 -10z"/>
<path d="M2593 783 c-24 -9 -13 -37 27 -73 l41 -35 -29 -30 c-44 -46 -55 -71
-42 -95 6 -11 21 -20 34 -20 23 0 66 37 66 57 0 17 28 36 55 36 14 0 41 -16
65 -37 38 -34 73 -46 84 -28 11 19 -8 52 -46 78 -42 29 -45 44 -23 111 9 27
-19 43 -44 25 -52 -37 -72 -43 -107 -32 -19 6 -39 20 -44 31 -11 19 -16 21
-37 12z"/>
</g>
</svg>
